<svg width="41" height="40" viewBox="0 0 41 40" fill="none" xmlns="http://www.w3.org/2000/svg">
<g id="Menu Icon" clip-path="url(#clip0_30_14874)">
<circle id="Vector" cx="20.5" cy="20" r="20" fill="#E6E6E6"/>
<g id="Vector_2">
<path fill-rule="evenodd" clip-rule="evenodd" d="M10.2227 19.9999C10.2227 19.2328 10.8445 18.611 11.6115 18.611H29.3893C30.1564 18.611 30.7782 19.2328 30.7782 19.9999C30.7782 20.767 30.1564 21.3888 29.3893 21.3888H11.6115C10.8445 21.3888 10.2227 20.767 10.2227 19.9999Z" fill="#4D4D4D"/>
<path fill-rule="evenodd" clip-rule="evenodd" d="M10.2227 13.3332C10.2227 12.5662 10.8445 11.9443 11.6115 11.9443H29.3893C30.1564 11.9443 30.7782 12.5662 30.7782 13.3332C30.7782 14.1003 30.1564 14.7221 29.3893 14.7221H11.6115C10.8445 14.7221 10.2227 14.1003 10.2227 13.3332Z" fill="#4D4D4D"/>
<path fill-rule="evenodd" clip-rule="evenodd" d="M10.2227 26.6666C10.2227 25.8995 10.8445 25.2777 11.6115 25.2777H29.3893C30.1564 25.2777 30.7782 25.8995 30.7782 26.6666C30.7782 27.4336 30.1564 28.0554 29.3893 28.0554H11.6115C10.8445 28.0554 10.2227 27.4336 10.2227 26.6666Z" fill="#4D4D4D"/>
</g>
</g>
<defs>
<clipPath id="clip0_30_14874">
<rect width="40" height="40" fill="white" transform="translate(0.5)"/>
</clipPath>
</defs>
</svg>
